<svg width="3600" height="740" viewBox="0 0 3600 740" fill="none" xmlns="http://www.w3.org/2000/svg">
<path d="M890 131V577.464H1183.81V493.075H983.171V396.02H1167.75V311.834H983.171V215.389H1181.37V131H890Z" fill="black"/>
<path d="M1221.45 577.464H1312.59V376.989C1312.59 362.359 1315.35 350.868 1320.13 341.909C1325.24 332.472 1331.86 325.725 1339.98 321.149C1348.43 316.465 1358.37 313.934 1370.19 313.934C1387.37 313.934 1399.18 319.148 1407.58 328.311L1407.6 328.341L1407.63 328.37C1416.11 337.53 1421.28 351.101 1421.28 371.096V577.464H1512.42V363.782C1512.42 336.392 1507.74 312.29 1497.58 292.139C1487.5 272.155 1473.04 256.672 1454.19 246.282C1435.6 235.903 1414.35 230.967 1390.92 230.967C1365.34 230.967 1342.82 236.445 1324.32 248.448L1324.29 248.465L1324.26 248.482C1319.19 251.805 1314.48 255.452 1310.15 259.416V235.03H1221.45V577.464Z" fill="black"/>
<path fill-rule="evenodd" clip-rule="evenodd" d="M1611.19 561.736L1611.24 561.769L1611.29 561.802C1633.71 576.383 1659.12 583.559 1687.05 583.559C1707.57 583.559 1725.72 580.139 1740.55 572.221C1750.85 566.726 1759.82 560.299 1767.21 552.821V577.464H1856.93V131H1765.79V259.913C1758.94 253.279 1750.75 247.526 1741.45 242.556C1726.66 234.427 1708.31 230.967 1687.46 230.967C1659.67 230.967 1634.36 238.067 1611.96 252.481C1589.5 266.935 1572.14 287.601 1559.71 313.796L1559.69 313.827L1559.68 313.859C1547.26 340.323 1541.37 371.491 1541.37 406.857C1541.37 442.204 1547.19 473.4 1559.43 499.964L1559.45 500.011L1559.47 500.058C1571.75 526.235 1588.93 547.009 1611.19 561.736ZM1758.27 458.498L1758.25 458.548L1758.23 458.599C1752.84 472.877 1745.18 483.336 1735.56 490.714C1726.54 497.6 1715.14 501.405 1700.47 501.405C1685.33 501.405 1673.6 497.438 1664.35 490.246C1654.61 482.436 1646.9 471.64 1641.51 457.215C1636.01 442.519 1633.12 425.6 1633.12 406.247C1633.12 387.171 1635.94 370.53 1641.29 356.114C1646.68 341.991 1654.35 331.488 1664.05 323.945C1673.12 316.898 1684.91 312.918 1700.47 312.918C1715.53 312.918 1727.08 316.717 1736.06 323.481C1745.52 330.593 1753.09 340.773 1758.46 354.786C1763.89 368.94 1766.81 385.992 1766.81 406.247C1766.81 426.757 1763.83 444.073 1758.27 458.498Z" fill="black"/>
<path fill-rule="evenodd" clip-rule="evenodd" d="M1981.57 690.321L1981.59 690.327L1981.61 690.334C2001.58 697.592 2024.77 701 2050.83 701C2078.96 701 2104.73 696.623 2127.9 687.569C2151.68 678.331 2170.99 663.875 2185.29 644.136C2200.08 623.735 2206.88 598.372 2206.88 569.201V235.03H2116.96V261.006C2109.82 253.915 2101.21 247.798 2091.38 242.543C2076.49 234.438 2058.09 230.967 2037.21 230.967C2009.44 230.967 1984.13 238.06 1961.74 252.46C1939.3 266.757 1921.93 287.199 1909.48 313.126L1909.47 313.157L1909.45 313.189C1897.02 339.39 1891.12 370.17 1891.12 405.028C1891.12 439.88 1897.09 470.324 1909.8 495.728L1909.82 495.777L1909.84 495.825C1922.52 520.713 1939.99 540.122 1962.38 553.398L1962.44 553.429L1962.49 553.46C1984.77 566.427 2009.67 572.791 2036.8 572.791C2057.32 572.791 2075.4 569.618 2090.14 562.249C2100 557.321 2108.69 551.533 2115.95 544.768V566.763C2115.95 587.937 2109.58 600.384 2099.54 607.795L2099.51 607.821L2099.47 607.847C2087.6 616.719 2071.96 621.69 2051.44 621.69C2035.92 621.69 2024.46 619.479 2016.35 615.89C2007.21 611.786 2000.66 607.123 1996.14 602.208C1990.52 596.098 1986.29 590.578 1983.27 585.648L1976.5 574.628L1897.98 606.998L1904.17 621.186C1910.63 635.98 1920.29 649.328 1932.83 661.261C1945.87 673.67 1962.28 683.256 1981.57 690.321ZM2108.12 453.965C2102.88 466.836 2095.45 476.086 2086.04 482.465C2076.96 488.584 2065.29 492.059 2050.22 492.059C2034.71 492.059 2022.75 488.369 2013.45 481.84C2003.89 475.038 1996.38 465.437 1991.11 452.382C1985.75 439.105 1982.86 423.155 1982.86 404.215C1982.86 385.88 1985.67 369.737 1991.01 355.59C1996.37 341.762 2004.01 331.446 2013.72 324.009L2013.76 323.977L2013.8 323.945C2022.86 316.898 2034.65 312.918 2050.22 312.918C2065.28 312.918 2076.82 316.717 2085.81 323.481L2085.86 323.513L2085.9 323.546C2095.35 330.552 2102.89 340.544 2108.24 354.256C2113.66 368.139 2116.56 384.696 2116.56 404.215C2116.56 424.318 2113.58 440.741 2108.15 453.902L2108.13 453.933L2108.12 453.965Z" fill="black"/>
<path fill-rule="evenodd" clip-rule="evenodd" d="M2295.42 571.98L2295.47 572.002L2295.52 572.024C2313.72 580.353 2333.81 584.372 2355.5 584.372C2374.12 584.372 2390.94 581.668 2405.53 575.737C2416.7 571.198 2426.62 565.553 2435.05 558.667V577.464H2524.76V355.045C2524.76 330.706 2520.59 309.448 2511.09 292.263C2502.15 275.941 2490.37 262.874 2475.59 253.616C2461.87 244.936 2447.03 238.968 2431.16 235.754C2416.33 232.594 2402.08 230.967 2388.43 230.967C2368.13 230.967 2348.64 233.887 2330.02 239.789C2310.9 245.712 2293.88 255.321 2279.09 268.573C2263.93 282.15 2252.75 299.71 2245.26 320.684L2239.5 336.782L2325.87 356.443L2330.73 344.514C2333.97 336.568 2340.08 328.647 2350.1 320.957L2350.12 320.942C2358.42 314.554 2370.89 310.48 2389.24 310.48C2406.57 310.48 2416.85 314.772 2422.9 320.739L2422.94 320.775L2422.97 320.811C2429.33 326.988 2433.42 336.373 2433.42 351.184V352.606C2433.42 354.459 2433.09 355.177 2433.04 355.27L2433.03 355.294L2433.03 355.303L2433.02 355.31L2433.02 355.313C2433.02 355.316 2433 355.336 2432.96 355.37C2432.92 355.396 2432.87 355.433 2432.8 355.481C2432.78 355.497 2432.75 355.515 2432.72 355.534C2430.27 357.043 2424.46 359.09 2413.42 360.507C2401.78 361.86 2386.63 363.617 2367.98 365.779L2367.96 365.782L2367.93 365.785C2352.59 367.613 2337.52 370.288 2322.71 373.812C2307.2 377.504 2292.93 383.024 2280.02 390.462C2266.26 398.392 2255.23 409.25 2247.12 422.87C2238.55 437.247 2234.82 454.644 2234.82 474.111C2234.82 496.873 2239.97 517.183 2251.11 534.225L2251.14 534.268L2251.17 534.31C2262.14 550.828 2277.01 563.403 2295.42 571.98ZM2329.52 458.906C2333.41 454.476 2338.86 450.719 2346.46 447.934C2355.02 444.848 2364.67 442.578 2375.49 441.211L2375.56 441.202L2375.62 441.194C2380.59 440.523 2386.78 439.716 2394.21 438.771L2394.34 438.754L2394.48 438.734C2401.98 437.643 2409.69 436.485 2417.59 435.259L2417.72 435.239L2417.84 435.217C2423.45 434.252 2428.71 433.173 2433.63 431.972V449.729C2433.63 459.298 2431.19 468.234 2426.16 476.788L2426.15 476.814L2426.13 476.839C2421.43 484.907 2414.42 491.727 2404.49 497.191L2404.46 497.208L2404.42 497.226C2395.22 502.347 2383.52 505.266 2368.71 505.266C2353.74 505.266 2342.81 501.985 2334.84 496.567C2328.34 492.033 2324.74 485.61 2324.74 474.923C2324.74 466.795 2326.82 461.993 2329.52 458.906Z" fill="black"/>
<path d="M2655.48 235.03H2566.78V577.464H2657.92V369.877C2657.92 357.953 2660.36 348.143 2664.78 340.005C2669.59 331.405 2675.62 325.075 2682.85 320.598L2682.88 320.583L2682.9 320.568C2690.24 315.981 2698.09 313.731 2706.77 313.731C2720.39 313.731 2730.13 317.745 2737.45 324.867C2744.64 331.877 2748.72 341.342 2748.72 354.842V577.464H2839.65V363.375C2839.65 347.531 2844.14 335.869 2852.16 327.057L2852.19 327.026L2852.22 326.995C2859.73 318.652 2870.64 313.731 2887.08 313.731C2899.82 313.731 2910.1 317.415 2918.7 324.493C2925.44 330.039 2930.45 340.134 2930.45 358.702V577.464H3021.59V353.013C3021.59 314.91 3011.98 283.576 2990.05 261.972C2968.96 241.058 2941.83 230.967 2910.05 230.967C2885.27 230.967 2863.04 236.507 2843.99 248.232C2832.71 255.097 2823.15 263.468 2815.42 273.311C2808.61 263.524 2800.2 255.143 2790.2 248.282C2773.06 236.429 2752.4 230.967 2729.13 230.967C2706.07 230.967 2685.38 236.454 2667.75 248.081C2663.35 250.95 2659.26 254.107 2655.48 257.543V235.03Z" fill="black"/>
<path fill-rule="evenodd" clip-rule="evenodd" d="M3126.56 561.885L3126.6 561.913L3126.65 561.941C3151.63 576.707 3180.9 583.763 3213.86 583.763C3238.15 583.763 3260.33 580.077 3280.15 572.367L3280.18 572.356L3280.2 572.344C3299.95 564.57 3316.75 553.553 3330.24 539.132C3343.87 524.582 3353.35 507.555 3358.61 488.252L3362.95 472.276L3276.66 456.733L3272.22 468.581C3269.29 476.398 3265.19 482.62 3260.06 487.553C3254.79 492.609 3248.49 496.507 3240.96 499.209C3233.3 501.823 3224.52 503.234 3214.47 503.234C3198.95 503.234 3186.13 499.942 3175.49 493.881C3164.96 487.74 3156.58 478.841 3150.37 466.674C3146.56 459.047 3143.82 450.106 3142.32 439.705H3363V402.996C3363 373.417 3359.05 347.419 3350.61 325.433C3342.35 303.782 3330.84 285.57 3315.78 271.297C3301.14 257.418 3284.48 247.124 3265.86 240.566C3247.7 234.168 3228.92 230.967 3209.59 230.967C3178.11 230.967 3149.88 238.426 3125.46 253.831L3125.44 253.842L3125.42 253.854C3101.38 269.123 3082.75 290.33 3069.54 317.03L3069.51 317.091C3056.41 343.886 3050.08 374.41 3050.08 408.279C3050.08 442.516 3056.39 473.145 3069.54 499.73L3069.57 499.776L3069.59 499.822C3082.88 526.249 3101.9 547.068 3126.56 561.885ZM3271.84 363.849H3143.61C3145.01 358.459 3146.99 353.293 3149.52 348.33C3155.23 337.266 3163.2 328.423 3173.6 321.608L3173.62 321.597L3173.63 321.586C3183.6 315.013 3195.53 311.496 3210 311.496C3223.33 311.496 3234.17 314.512 3243.1 320.009L3243.13 320.029L3243.16 320.049C3252.55 325.764 3259.79 333.511 3265.05 343.573L3265.06 343.603L3265.08 343.633C3268.26 349.659 3270.54 356.367 3271.84 363.849Z" fill="black"/>
<path d="M492.928 326.097H247.074V413.902H492.928V326.097Z" fill="#2B7FFF"/>
<path fill-rule="evenodd" clip-rule="evenodd" d="M730 370C730 568.823 568.823 730 370 730C171.177 730 10 568.823 10 370C10 171.177 171.177 10 370 10C568.823 10 730 171.177 730 370ZM570.228 554.391C520.487 608.375 449.193 642.195 370 642.195C219.671 642.195 97.8049 520.329 97.8049 370C97.8049 335.987 104.043 303.432 115.439 273.415H492.927V185.61H169.772C219.512 131.625 290.806 97.8049 370 97.8049C520.329 97.8049 642.195 219.671 642.195 370C642.195 404.013 635.957 436.569 624.561 466.586H247.074V554.391H570.228Z" fill="#2B7FFF"/>
</svg>
